HIERARCHY
ROOT Hips
{
	OFFSET	0.00	0.00	0.00
	CHANNELS 6 Xposition Yposition Zposition Zrotation Xrotation Yrotation
	JOINT LeftUpLeg
	{
		OFFSET	 0.126116	-0.014019	-0.065224
		CHANNELS 3 Zrotation Xrotation Yrotation
		JOINT LeftLeg
		{
			OFFSET	 0.000000	 0.000000	 0.569914
			CHANNELS 3 Zrotation Xrotation Yrotation
			JOINT LeftFoot
			{
				OFFSET	 0.000000	 0.000000	 0.544423
				CHANNELS 3 Zrotation Xrotation Yrotation
				JOINT LeftToeBase
				{
					OFFSET	 0.000000	 0.000000	 0.207117
					CHANNELS 3 Zrotation Xrotation Yrotation
					End Site
					{
						OFFSET	 0.000000	 0.000000	 0.207117
					}
				}
			}
		}
	}
	JOINT RightUpLeg
	{
		OFFSET	-0.124023	-0.008373	-0.065224
		CHANNELS 3 Zrotation Xrotation Yrotation
		JOINT RightLeg
		{
			OFFSET	 0.000000	 0.000000	 0.570047
			CHANNELS 3 Zrotation Xrotation Yrotation
			JOINT RightFoot
			{
				OFFSET	 0.000000	 0.000000	 0.544354
				CHANNELS 3 Zrotation Xrotation Yrotation
				JOINT RightToeBase
				{
					OFFSET	 0.000000	 0.000000	 0.207540
					CHANNELS 3 Zrotation Xrotation Yrotation
					End Site
					{
						OFFSET	 0.000000	 0.000000	 0.207540
					}
				}
			}
		}
	}
	JOINT Spine
	{
		OFFSET	 0.000184	-0.007763	 0.117403
		CHANNELS 3 Zrotation Xrotation Yrotation
		JOINT Spine1
		{
			OFFSET	 0.000000	 0.000000	 0.137269
			CHANNELS 3 Zrotation Xrotation Yrotation
			JOINT Spine2
			{
				OFFSET	 0.000000	 0.000000	 0.156879
				CHANNELS 3 Zrotation Xrotation Yrotation
				JOINT LeftShoulder
				{
					OFFSET	 0.080501	-0.002496	 0.160144
					CHANNELS 3 Zrotation Xrotation Yrotation
					JOINT LeftArm
					{
						OFFSET	 0.000000	 0.000000	 0.164363
						CHANNELS 3 Zrotation Xrotation Yrotation
						JOINT LeftForeArm
						{
							OFFSET	 0.000000	 0.000000	 0.364576
							CHANNELS 3 Zrotation Xrotation Yrotation
							JOINT LeftHand
							{
								OFFSET	 0.000000	 0.000000	 0.360812
								CHANNELS 3 Zrotation Xrotation Yrotation
								JOINT LeftHandIndex1
								{
									OFFSET	 0.000000	 0.000000	 0.086006
									CHANNELS 3 Zrotation Xrotation Yrotation
									JOINT LeftHandIndex2
									{
										OFFSET	 0.000000	 0.000000	 0.047237
										CHANNELS 3 Zrotation Xrotation Yrotation
										JOINT LeftHandIndex3
										{
											OFFSET	-0.004284	-0.000551	 0.038165
											CHANNELS 3 Zrotation Xrotation Yrotation
											End Site
											{
												OFFSET	-0.004284	-0.000551	 0.038165
											}
										}
									}
								}
							}
						}
					}
				}
				JOINT Neck
				{
					OFFSET	 0.000000	 0.000000	 0.176489
					CHANNELS 3 Zrotation Xrotation Yrotation
					JOINT Head
					{
						OFFSET	 0.000000	-0.001747	 0.077940
						CHANNELS 3 Zrotation Xrotation Yrotation
						End Site
						{
							OFFSET	 0.000000	-0.001747	 0.077940
						}
					}
				}
				JOINT RightShoulder
				{
					OFFSET	-0.080363	 0.000306	 0.159706
					CHANNELS 3 Zrotation Xrotation Yrotation
					JOINT RightArm
					{
						OFFSET	 0.000000	 0.000000	 0.164196
						CHANNELS 3 Zrotation Xrotation Yrotation
						JOINT RightForeArm
						{
							OFFSET	 0.000000	 0.000000	 0.365611
							CHANNELS 3 Zrotation Xrotation Yrotation
							JOINT RightHand
							{
								OFFSET	 0.000000	 0.000000	 0.360648
								CHANNELS 3 Zrotation Xrotation Yrotation
								JOINT RightHandIndex1
								{
									OFFSET	 0.000000	 0.000000	 0.069977
									CHANNELS 3 Zrotation Xrotation Yrotation
									JOINT RightHandIndex2
									{
										OFFSET	 0.000000	 0.000000	 0.052305
										CHANNELS 3 Zrotation Xrotation Yrotation
										JOINT RightHandIndex3
										{
											OFFSET	 0.009002	-0.000782	 0.042196
											CHANNELS 3 Zrotation Xrotation Yrotation
											End Site
											{
												OFFSET	 0.009002	-0.000782	 0.042196
											}
										}
									}
								}
							}
						}
					}
				}
			}
		}
	}
}
MOTION
Frames:    5
Frame Time: 0.03333334
-0.373891	 0.138538	 1.209252	-174.353400	 4.346463	 17.331170	 23.784350	-16.556650	 165.609500	-11.059310	-54.080990	-9.455443	 144.500900	 70.735390	-159.429400	-2.385833	 28.452760	 0.000004	-19.645570	-40.803300	 149.985700	 6.265957	-52.806490	 3.781664	-7.091969	 72.561320	 27.776240	 2.384659	 28.388700	-0.000001	 39.762480	-17.380580	-6.832262	 51.167180	 25.190360	 18.436280	-3.684926	-1.840621	-13.684270	-91.776180	 78.527330	-180.000000	-1.757913	 47.197010	-20.050600	-1.799851	-3.152511	-86.614990	 4.707774	-27.226970	-0.593728	-4.130319	 21.525730	 0.991547	-5.167930	 0.731704	 3.519349	-1.378229	 35.397820	-2.634230	-17.702350	 7.814120	 7.638697	-22.109790	-22.502790	-15.430460	 89.782300	 78.372470	 179.977400	 10.523600	 51.351040	 43.804780	-17.835340	-0.100502	 0.481745	-47.064590	-43.534880	-141.248500	 5.716227	 19.173190	-3.685159	 5.027444	 0.246877	-9.377972	-2.350882	 35.473990	 5.254307
-0.392764	 0.162828	 1.214075	-173.624300	 4.384379	 14.555790	 26.246110	-11.460990	 168.437600	-10.524610	-48.770530	-8.382830	 142.440900	 70.274960	-156.744600	-2.385833	 28.452760	 0.000004	-15.751230	-40.545090	 155.988800	 6.224149	-53.335230	 3.774293	-2.833259	 74.665920	 21.487370	 2.384659	 28.388700	-0.000001	 35.923550	-13.348680	-6.397136	 46.674630	 21.384020	 22.216320	-2.640446	-0.154817	-13.687650	-91.776180	 78.527380	 180.000000	-7.573131	 42.495390	-10.476570	-1.845431	-3.118808	-87.415270	 5.198683	-28.679150	-0.381351	-4.130319	 21.525730	 0.991547	-5.167930	 0.731704	 3.519349	-1.378229	 35.397820	-2.634230	-17.208180	 7.675512	 8.397897	-21.541920	-22.204740	-16.300120	 89.782280	 78.353000	 179.979800	 15.132710	 22.808320	 25.573990	-16.658730	-0.094029	 0.501828	-19.499620	-32.857750	-104.364900	 5.716227	 19.173190	-3.685159	 5.027444	 0.246877	-9.377972	-2.350882	 35.473990	 5.254307
-0.409617	 0.186731	 1.218715	-172.611800	 4.624454	 12.967170	 28.574350	-7.321058	 169.990600	-10.205300	-43.839210	-7.503280	 140.811600	 69.576410	-154.472800	-2.385833	 28.452760	 0.000004	-12.794820	-39.315340	 159.955700	 5.997718	-52.980150	 3.575653	 1.506287	 77.040840	 15.094660	 2.384659	 28.388700	-0.000001	 31.495620	-10.990940	-5.248920	 43.117260	 16.875090	 24.730970	-1.435412	 2.010194	-13.984180	-91.776190	 78.527400	-180.000000	-12.445850	 37.961230	-0.005703	-1.881078	-2.714453	-87.781360	 5.627262	-30.702740	-0.307455	-4.130319	 21.525730	 0.991547	-5.167930	 0.731704	 3.519349	-1.378229	 35.397820	-2.634230	-16.445970	 7.674754	 8.235160	-20.865720	-22.591490	-15.306630	 89.782200	 78.324130	 179.983400	 34.242120	 4.127860	-10.366280	-13.581290	-7.425323	 44.357270	-33.422030	-7.320499	-96.729260	 5.716227	 19.173190	-3.685159	 5.027444	 0.246877	-9.377972	-2.350882	 35.473990	 5.254307
-0.419731	 0.206435	 1.223539	-171.805100	 4.530580	 11.907870	 30.001900	-3.790849	 170.482500	-10.215740	-39.758110	-6.940841	 138.393200	 69.718170	-151.468800	-2.385833	 28.452760	 0.000004	-10.294020	-37.818490	 162.498100	 5.488357	-52.500790	 3.148099	 7.276778	 78.753900	 7.997618	 2.384659	 28.388700	-0.000001	 27.819980	-9.288345	-4.195206	 40.575190	 12.722980	 26.449760	-0.282934	 4.190926	-14.186960	-91.776140	 78.527350	 180.000000	-15.418870	 34.656310	 8.133965	-1.964256	-2.156640	-89.417090	 5.902643	-32.475830	-0.401702	-4.130319	 21.525730	 0.991547	-5.167930	 0.731704	 3.519349	-1.378229	 35.397820	-2.634230	-15.879250	 8.032874	 8.729455	-20.452330	-22.627520	-16.233450	 89.782160	 78.299710	 179.986300	 42.685790	-7.314547	-15.018930	-13.937380	-6.960214	 41.185070	-38.291970	-4.418421	-76.925030	 5.716227	 19.173190	-3.685159	 5.027444	 0.246877	-9.377972	-2.350882	 35.473990	 5.254307
-0.425570	 0.219354	 1.227348	-171.049600	 3.536682	 10.867760	 31.027420	 0.111326	 170.629700	-10.321970	-35.368250	-6.350383	 135.778900	 70.114780	-148.006600	-2.385833	 28.452760	 0.000004	-8.119312	-36.402980	 164.855900	 5.168951	-52.399280	 2.890344	 12.107010	 79.552990	 2.489342	 2.384659	 28.388700	-0.000001	 24.815460	-6.832179	-3.087068	 38.767440	 7.890810	 27.942150	 0.927647	 6.439151	-14.097070	-91.776180	 78.527400	 180.000000	-17.428750	 32.624860	 13.993420	-2.028366	-1.602755	-91.507890	 6.032207	-33.728980	-0.597652	-4.130319	 21.525730	 0.991547	-5.167930	 0.731704	 3.519349	-1.378229	 35.397820	-2.634230	-14.880930	 8.990771	 7.754405	-19.874040	-23.799030	-14.853590	 89.782090	 78.290060	 179.987600	 42.530160	-11.585450	-14.925220	-14.293540	-6.088360	 36.214840	-38.616030	-6.788908	-66.262680	 5.716227	 19.173190	-3.685159	 5.027444	 0.246877	-9.377972	-2.350882	 35.473990	 5.254307
